<svg width="714" height="714" viewBox="0 0 714 714" fill="none" xmlns="http://www.w3.org/2000/svg">
<g filter="url(#filter0_d_97_57)">
<g clip-path="url(#clip0_97_57)">
<path d="M27 133.4C27 94.7564 27 75.4346 34.5206 60.6747C41.1358 47.6915 51.6915 37.1358 64.6747 30.5206C79.4346 23 98.7564 23 137.4 23H576.6C615.244 23 634.565 23 649.325 30.5206C662.309 37.1358 672.864 47.6915 679.479 60.6747C687 75.4346 687 94.7564 687 133.4V572.6C687 611.244 687 630.565 679.479 645.325C672.864 658.309 662.309 668.864 649.325 675.479C634.565 683 615.244 683 576.6 683H137.4C98.7564 683 79.4346 683 64.6747 675.479C51.6915 668.864 41.1358 658.309 34.5206 645.325C27 630.565 27 611.244 27 572.6V133.4Z" fill="#352E2E"/>
<rect x="691" y="208" width="477" height="669" transform="rotate(90 691 208)" fill="url(#paint0_linear_97_57)"/>
<path opacity="0.16" d="M519.967 417.44C524.954 443.089 506.405 468.149 471.991 487.888C437.616 507.604 387.577 521.905 330.021 526.092C272.466 530.278 218.338 523.554 177.362 509.319C136.338 495.068 108.696 473.368 103.708 447.719C98.7204 422.07 117.27 397.011 151.684 377.272C186.058 357.556 236.097 343.255 293.653 339.069C351.209 334.882 405.336 341.606 446.313 355.841C487.337 370.093 514.979 391.792 519.967 417.44Z" fill="black" stroke="url(#paint1_linear_97_57)"/>
<path opacity="0.0714286" d="M526.43 433.792C527.844 445.913 523.477 457.353 514.288 467.667C505.097 477.982 491.101 487.146 473.327 494.697C437.779 509.798 387.205 518.408 330.035 516.924C272.865 515.44 219.97 504.144 180.672 487.1C161.023 478.578 144.796 468.629 133.136 457.772C121.477 446.917 114.408 435.18 112.994 423.059C111.58 410.938 115.946 399.498 125.135 389.184C134.326 378.868 148.323 369.704 166.098 362.153C201.646 347.052 252.219 338.442 309.388 339.926C366.559 341.41 419.454 352.706 458.752 369.75C478.401 378.272 494.627 388.222 506.288 399.079C517.946 409.934 525.016 421.67 526.43 433.792Z" fill="#704E82" stroke="url(#paint2_linear_97_57)"/>
<path opacity="0.142857" d="M531.213 449.198C531.649 460.525 526.446 470.676 516.56 479.329C506.673 487.983 492.132 495.11 473.988 500.378C437.701 510.916 387.094 513.997 330.774 507.101C274.454 500.206 223.13 484.645 185.683 465.081C166.959 455.298 151.728 444.527 141.078 433.359C130.429 422.192 124.39 410.664 123.954 399.337C123.518 388.01 128.721 377.859 138.607 369.206C148.494 360.552 163.035 353.425 181.18 348.156C217.467 337.619 268.074 334.539 324.393 341.434C380.713 348.33 432.038 363.889 469.484 383.453C488.209 393.236 503.439 404.008 514.089 415.177C524.738 426.344 530.776 437.871 531.213 449.198Z" fill="#79578B" stroke="url(#paint3_linear_97_57)"/>
<path opacity="0.214286" d="M534.415 463.518C533.984 473.975 528.094 482.801 517.685 489.785C507.275 496.769 492.389 501.88 474.089 504.916C437.491 510.988 387.336 508.751 332.304 496.744C277.273 484.737 227.828 465.243 192.376 443.45C174.649 432.553 160.446 421.096 150.792 409.734C141.137 398.372 136.071 387.156 136.502 376.698C136.932 366.241 142.822 357.414 153.232 350.43C163.641 343.446 178.526 338.335 196.827 335.299C233.424 329.226 283.579 331.464 338.611 343.472C393.643 355.479 443.088 374.972 478.539 396.764C496.266 407.662 510.47 419.119 520.125 430.481C529.779 441.843 534.845 453.06 534.415 463.518Z" fill="#816095" stroke="url(#paint4_linear_97_57)"/>
<path opacity="0.285714" d="M536.138 476.634C534.96 486.166 528.535 493.65 517.774 498.979C507.016 504.307 491.985 507.446 473.738 508.322C437.248 510.075 388.007 502.775 334.673 485.991C281.338 469.207 234.049 446.129 200.709 422.401C184.038 410.536 170.879 398.526 162.195 387.08C153.508 375.631 149.347 364.814 150.525 355.283C151.704 345.752 158.129 338.267 168.89 332.938C179.648 327.61 194.68 324.472 212.927 323.595C249.417 321.843 298.658 329.142 351.992 345.927C405.327 362.711 452.616 385.789 485.955 409.516C502.627 421.381 515.785 433.392 524.469 444.837C533.155 456.286 537.317 467.103 536.138 476.634Z" fill="#89699F" stroke="url(#paint5_linear_97_57)"/>
<path opacity="0.357143" d="M536.504 488.419C534.701 496.985 527.898 503.134 516.955 506.841C506.02 510.545 491.034 511.779 473.043 510.589C437.064 508.21 389.177 496.149 337.916 474.954C286.655 453.758 241.764 427.459 210.626 402.086C195.054 389.399 182.946 376.962 175.197 365.533C167.442 354.095 164.11 343.755 165.913 335.189C167.716 326.623 174.519 320.475 185.462 316.768C196.397 313.064 211.382 311.83 229.374 313.02C265.352 315.399 313.241 327.461 364.502 348.656C415.762 369.851 460.653 396.151 491.791 421.523C507.362 434.21 519.47 446.647 527.22 458.077C534.974 469.514 538.307 479.853 536.504 488.419Z" fill="#9272A8" stroke="url(#paint6_linear_97_57)"/>
<path opacity="0.428571" d="M535.633 498.784C533.333 506.364 526.305 511.201 515.347 513.338C504.403 515.472 489.649 514.888 472.106 511.747C437.024 505.465 390.899 488.977 342.053 463.764C293.208 438.551 250.925 409.403 222.05 382.672C207.609 369.304 196.545 356.561 189.686 345.237C182.817 333.898 180.232 324.099 182.532 316.52C184.833 308.94 191.86 304.102 202.818 301.964C213.762 299.83 228.516 300.415 246.06 303.556C281.142 309.838 327.267 326.325 376.113 351.539C424.958 376.752 467.241 405.9 496.116 432.631C510.556 445.999 521.62 458.742 528.479 470.065C535.348 481.405 537.933 491.205 535.633 498.784Z" fill="#9A7BB2" stroke="url(#paint7_linear_97_57)"/>
<path opacity="0.5" d="M533.663 507.642C530.995 514.232 523.894 517.804 513.079 518.442C502.29 519.078 487.944 516.782 471.03 511.821C437.208 501.901 393.222 481.361 347.096 452.544C300.971 423.727 261.47 392.11 234.893 364.296C221.602 350.386 211.565 337.45 205.543 326.311C199.507 315.146 197.582 305.934 200.25 299.345C202.919 292.755 210.02 289.183 220.834 288.545C231.624 287.909 245.969 290.206 262.883 295.167C296.705 305.086 340.692 325.626 386.817 354.442C432.943 383.259 472.443 414.878 499.02 442.691C512.311 456.601 522.349 469.537 528.37 480.676C534.406 491.841 536.331 501.052 533.663 507.642Z" fill="#A384BC" stroke="url(#paint8_linear_97_57)"/>
<path opacity="0.571429" d="M530.732 514.936C527.826 520.551 520.796 522.923 510.277 522.148C499.796 521.376 486.027 517.49 469.911 510.859C437.686 497.6 396.18 473.408 353.04 441.42C309.899 409.432 273.32 375.723 249.052 347.093C236.916 332.775 227.879 319.75 222.635 308.863C217.372 297.936 216.016 289.346 218.923 283.731C221.83 278.117 228.86 275.746 239.379 276.521C249.859 277.293 263.628 281.179 279.744 287.81C311.969 301.069 353.476 325.261 396.616 357.249C439.756 389.237 476.335 422.945 500.602 451.575C512.739 465.893 521.777 478.919 527.021 489.806C532.283 500.733 533.639 509.322 530.732 514.936Z" fill="#AB8CC5" stroke="url(#paint9_linear_97_57)"/>
<path opacity="0.642857" d="M526.995 520.633C525.489 522.964 523.04 524.448 519.684 525.085C516.325 525.724 512.091 525.507 507.078 524.47C497.053 522.395 484.014 517.059 468.85 508.923C438.53 492.653 399.806 465.234 359.876 430.518C319.946 395.802 286.392 360.382 264.42 331.188C253.432 316.588 245.359 303.567 240.828 292.987C238.563 287.696 237.195 283.043 236.78 279.123C236.366 275.208 236.906 272.064 238.412 269.733C239.918 267.402 242.367 265.918 245.723 265.28C249.083 264.642 253.317 264.858 258.33 265.896C268.355 267.97 281.394 273.306 296.558 281.442C326.879 297.712 365.602 325.131 405.532 359.847C445.462 394.563 479.016 429.984 500.988 459.177C511.976 473.777 520.049 486.798 524.58 497.378C526.845 502.669 528.213 507.323 528.627 511.243C529.041 515.158 528.501 518.301 526.995 520.633Z" fill="#B395CF" stroke="url(#paint10_linear_97_57)"/>
<path opacity="0.714286" d="M522.595 524.693C521.099 526.573 518.743 527.584 515.535 527.704C512.326 527.823 508.318 527.047 503.599 525.418C494.164 522.161 481.997 515.53 467.923 506.064C439.783 487.137 404.106 456.935 367.569 419.942C331.033 382.949 300.574 346.19 280.863 316.669C271.006 301.905 263.853 288.974 259.967 278.744C258.023 273.627 256.907 269.215 256.667 265.604C256.428 261.993 257.065 259.243 258.561 257.363C260.057 255.483 262.413 254.472 265.621 254.352C268.83 254.233 272.839 255.009 277.557 256.639C286.992 259.896 299.159 266.527 313.232 275.993C341.372 294.92 377.05 325.122 413.586 362.114C450.123 399.107 480.581 435.867 500.292 465.388C510.149 480.152 517.303 493.083 521.19 503.313C523.133 508.429 524.248 512.841 524.488 516.452C524.728 520.063 524.09 522.813 522.595 524.693Z" fill="#BC9ED8" stroke="url(#paint11_linear_97_57)"/>
<path opacity="0.785714" d="M517.682 527.11C516.258 528.57 514.057 529.156 511.052 528.807C508.052 528.458 504.328 527.182 499.966 525.027C491.245 520.72 480.075 512.958 467.213 502.35C441.494 481.14 409.083 448.613 376.082 409.797C343.081 370.981 315.754 333.244 298.249 303.615C289.494 288.797 283.209 276.028 279.894 266.179C278.237 261.253 277.334 257.087 277.223 253.776C277.111 250.461 277.796 248.09 279.22 246.631C280.644 245.171 282.846 244.584 285.85 244.934C288.851 245.283 292.574 246.559 296.936 248.713C305.657 253.02 316.827 260.783 329.69 271.391C355.408 292.601 387.819 325.128 420.82 363.944C453.822 402.76 481.149 440.498 498.654 470.126C507.408 484.944 513.693 497.712 517.007 507.561C518.665 512.488 519.569 516.654 519.68 519.964C519.791 523.279 519.106 525.651 517.682 527.11Z" fill="#C4A7E2" stroke="url(#paint12_linear_97_57)"/>
<path opacity="0.857143" d="M512.412 527.897C511.119 528.974 509.127 529.196 506.374 528.429C503.634 527.667 500.25 525.953 496.299 523.345C488.402 518.133 478.339 509.415 466.79 497.86C443.699 474.757 414.73 440.372 385.364 400.183C355.997 359.994 331.806 321.628 316.432 292.092C308.743 277.321 303.271 264.778 300.455 255.33C299.047 250.603 298.313 246.681 298.286 243.657C298.259 240.618 298.944 238.607 300.236 237.53C301.529 236.452 303.522 236.231 306.276 236.997C309.016 237.76 312.4 239.474 316.351 242.081C324.248 247.294 334.31 256.011 345.859 267.566C368.95 290.669 397.919 325.054 427.285 365.243C456.652 405.431 480.843 443.798 496.217 473.334C503.906 488.106 509.379 500.649 512.194 510.097C513.603 514.824 514.337 518.746 514.364 521.77C514.391 524.809 513.705 526.819 512.412 527.897Z" fill="#CCB0EC" stroke="url(#paint13_linear_97_57)"/>
<path opacity="0.928571" d="M509.044 527.799C507.939 528.539 506.205 528.464 503.743 527.335C501.31 526.219 498.313 524.136 494.821 521.151C487.843 515.186 478.979 505.697 468.827 493.396C448.53 468.801 423.137 433.028 397.463 391.911C371.789 350.794 350.707 312.132 337.374 282.868C330.706 268.232 325.985 255.965 323.595 246.924C322.398 242.401 321.793 238.714 321.807 235.957C321.822 233.167 322.468 231.498 323.572 230.757C324.676 230.017 326.411 230.091 328.873 231.22C331.306 232.336 334.303 234.419 337.795 237.404C344.774 243.369 353.638 252.859 363.789 265.159C384.087 289.755 409.48 325.527 435.153 366.644C460.827 407.761 481.91 446.423 495.243 475.688C501.91 490.324 506.631 502.591 509.022 511.631C510.218 516.155 510.823 519.841 510.809 522.598C510.794 525.388 510.148 527.058 509.044 527.799Z" fill="#D5B9F5" stroke="url(#paint14_linear_97_57)"/>
<g filter="url(#filter1_i_97_57)">
<ellipse cx="470.319" cy="348.149" rx="73.0072" ry="170.443" transform="rotate(152.176 470.319 348.149)" fill="url(#paint15_linear_97_57)"/>
</g>
<path d="M549.643 498.443C540.878 503.069 530.302 503.351 518.637 499.826C506.968 496.3 494.242 488.974 481.233 478.444C455.216 457.385 428.14 423.573 406.195 381.994C384.25 340.414 371.613 298.981 368.907 265.618C367.553 248.936 368.686 234.296 372.359 222.673C376.031 211.053 382.231 202.481 390.996 197.855C399.761 193.229 410.336 192.947 422.002 196.472C433.671 199.998 446.395 207.324 459.405 217.855C485.422 238.914 512.498 272.726 534.443 314.306C556.388 355.885 569.025 397.318 571.731 430.68C573.084 447.362 571.952 462.002 568.279 473.625C564.607 485.245 558.408 493.817 549.643 498.443Z" stroke="url(#paint16_linear_97_57)"/>
</g>
</g>
<defs>
<filter id="filter0_d_97_57" x="0" y="0" width="714" height="714" filterUnits="userSpaceOnUse" color-interpolation-filters="sRGB">
<feFlood flood-opacity="0" result="BackgroundImageFix"/>
<feColorMatrix in="SourceAlpha" type="matrix" values="0 0 0 0 0 0 0 0 0 0 0 0 0 0 0 0 0 0 127 0" result="hardAlpha"/>
<feOffset dy="4"/>
<feGaussianBlur stdDeviation="13.5"/>
<feComposite in2="hardAlpha" operator="out"/>
<feColorMatrix type="matrix" values="0 0 0 0 1 0 0 0 0 1 0 0 0 0 1 0 0 0 0.25 0"/>
<feBlend mode="normal" in2="BackgroundImageFix" result="effect1_dropShadow_97_57"/>
<feBlend mode="normal" in="SourceGraphic" in2="effect1_dropShadow_97_57" result="shape"/>
</filter>
<filter id="filter1_i_97_57" x="367.855" y="189.576" width="204.927" height="313.146" filterUnits="userSpaceOnUse" color-interpolation-filters="sRGB">
<feFlood flood-opacity="0" result="BackgroundImageFix"/>
<feBlend mode="normal" in="SourceGraphic" in2="BackgroundImageFix" result="shape"/>
<feColorMatrix in="SourceAlpha" type="matrix" values="0 0 0 0 0 0 0 0 0 0 0 0 0 0 0 0 0 0 127 0" result="hardAlpha"/>
<feOffset dy="-9"/>
<feGaussianBlur stdDeviation="2"/>
<feComposite in2="hardAlpha" operator="arithmetic" k2="-1" k3="1"/>
<feColorMatrix type="matrix" values="0 0 0 0 1 0 0 0 0 0.949038 0 0 0 0 0.996603 0 0 0 0.25 0"/>
<feBlend mode="normal" in2="shape" result="effect1_innerShadow_97_57"/>
</filter>
<linearGradient id="paint0_linear_97_57" x1="691" y1="542.5" x2="1168" y2="542.5" gradientUnits="userSpaceOnUse">
<stop stop-color="#5A5555" stop-opacity="0"/>
<stop offset="1"/>
</linearGradient>
<linearGradient id="paint1_linear_97_57" x1="353.266" y1="522.08" x2="310.771" y2="333.962" gradientUnits="userSpaceOnUse">
<stop stop-color="white"/>
<stop offset="1"/>
</linearGradient>
<linearGradient id="paint2_linear_97_57" x1="353.315" y1="515.401" x2="332.554" y2="336.072" gradientUnits="userSpaceOnUse">
<stop stop-color="white"/>
<stop offset="1"/>
</linearGradient>
<linearGradient id="paint3_linear_97_57" x1="353.876" y1="507.975" x2="352.104" y2="340.024" gradientUnits="userSpaceOnUse">
<stop stop-color="white"/>
<stop offset="1"/>
</linearGradient>
<linearGradient id="paint4_linear_97_57" x1="355.024" y1="499.905" x2="369.223" y2="345.205" gradientUnits="userSpaceOnUse">
<stop stop-color="white"/>
<stop offset="1"/>
</linearGradient>
<linearGradient id="paint5_linear_97_57" x1="356.816" y1="491.309" x2="383.894" y2="351.041" gradientUnits="userSpaceOnUse">
<stop stop-color="white"/>
<stop offset="1"/>
</linearGradient>
<linearGradient id="paint6_linear_97_57" x1="359.301" y1="482.283" x2="396.258" y2="357.003" gradientUnits="userSpaceOnUse">
<stop stop-color="white"/>
<stop offset="1"/>
</linearGradient>
<linearGradient id="paint7_linear_97_57" x1="362.513" y1="472.944" x2="406.554" y2="362.691" gradientUnits="userSpaceOnUse">
<stop stop-color="white"/>
<stop offset="1"/>
</linearGradient>
<linearGradient id="paint8_linear_97_57" x1="366.478" y1="463.4" x2="415.078" y2="367.809" gradientUnits="userSpaceOnUse">
<stop stop-color="white"/>
<stop offset="1"/>
</linearGradient>
<linearGradient id="paint9_linear_97_57" x1="371.209" y1="453.767" x2="422.141" y2="372.179" gradientUnits="userSpaceOnUse">
<stop stop-color="white"/>
<stop offset="1"/>
</linearGradient>
<linearGradient id="paint10_linear_97_57" x1="376.714" y1="444.163" x2="428.047" y2="375.715" gradientUnits="userSpaceOnUse">
<stop stop-color="white"/>
<stop offset="1"/>
</linearGradient>
<linearGradient id="paint11_linear_97_57" x1="382.978" y1="434.685" x2="433.049" y2="378.385" gradientUnits="userSpaceOnUse">
<stop stop-color="white"/>
<stop offset="1"/>
</linearGradient>
<linearGradient id="paint12_linear_97_57" x1="389.98" y1="425.434" x2="437.368" y2="380.213" gradientUnits="userSpaceOnUse">
<stop stop-color="white"/>
<stop offset="1"/>
</linearGradient>
<linearGradient id="paint13_linear_97_57" x1="397.69" y1="416.509" x2="441.175" y2="381.255" gradientUnits="userSpaceOnUse">
<stop stop-color="white"/>
<stop offset="1"/>
</linearGradient>
<linearGradient id="paint14_linear_97_57" x1="408.177" y1="408.721" x2="446.704" y2="382.297" gradientUnits="userSpaceOnUse">
<stop stop-color="white"/>
<stop offset="1"/>
</linearGradient>
<linearGradient id="paint15_linear_97_57" x1="470.319" y1="518.592" x2="470.319" y2="177.707" gradientUnits="userSpaceOnUse">
<stop stop-color="#DDC2FF"/>
<stop offset="0.697115" stop-color="#E2CDFC"/>
<stop offset="1" stop-color="#B782FB"/>
</linearGradient>
<linearGradient id="paint16_linear_97_57" x1="416.695" y1="398.335" x2="534.909" y2="313.188" gradientUnits="userSpaceOnUse">
<stop stop-color="white"/>
<stop offset="1"/>
</linearGradient>
<clipPath id="clip0_97_57">
<rect x="27" y="23" width="660" height="660" rx="94" fill="white"/>
</clipPath>
</defs>
</svg>
