<svg width="20" height="19" viewBox="0 0 20 19" fill="none" xmlns="http://www.w3.org/2000/svg">
<path fill-rule="evenodd" clip-rule="evenodd" d="M5.75647 3.573C4.78647 4.55 4.15947 5.968 3.90647 7.699C3.88588 7.84061 3.83513 7.97615 3.75767 8.09647C3.6802 8.21678 3.57782 8.31907 3.45743 8.39643C3.33704 8.47378 3.20145 8.52439 3.05982 8.54485C2.91819 8.5653 2.77382 8.55513 2.63647 8.515C2.36047 8.435 2.18747 8.687 2.10047 8.921C1.98747 9.225 1.95347 9.666 2.08447 10.156C2.19847 10.581 2.60147 11.466 3.17447 11.413C3.39794 11.3922 3.62192 11.4471 3.81038 11.569C3.99884 11.6909 4.14082 11.8726 4.21347 12.085C5.22947 15.057 7.78047 17 9.98147 17C12.1825 17 14.7335 15.057 15.7495 12.085C15.822 11.8719 15.9644 11.6895 16.1535 11.5674C16.3426 11.4453 16.5674 11.3905 16.7915 11.412C17.3645 11.467 17.7685 10.581 17.8825 10.156C18.0135 9.666 17.9795 9.225 17.8665 8.921C17.7785 8.686 17.6055 8.434 17.3285 8.515C17.1911 8.55546 17.0466 8.56593 16.9047 8.54569C16.7629 8.52546 16.6271 8.475 16.5065 8.39772C16.3859 8.32044 16.2833 8.21815 16.2057 8.09777C16.128 7.9774 16.0771 7.84175 16.0565 7.7C15.8035 5.969 15.1765 4.55 14.2065 3.574C13.2535 2.614 11.8915 2 9.98147 2C8.07147 2 6.70947 2.615 5.75647 3.573ZM4.33747 2.163C5.70747 0.785 7.60347 0 9.98147 0C12.3595 0 14.2545 0.785 15.6255 2.164C16.7815 3.327 17.5055 4.854 17.8755 6.537C17.9308 6.547 17.9855 6.55967 18.0395 6.575C18.9085 6.807 19.4685 7.491 19.7415 8.225C20.0145 8.961 20.0405 9.83 19.8145 10.674C19.4975 11.857 18.6495 13.024 17.4125 13.339C16.0605 16.59 13.0675 19 9.98147 19C6.89547 19 3.90147 16.588 2.55047 13.338C1.31547 13.021 0.469466 11.855 0.152466 10.674C-0.0735342 9.83 -0.0475343 8.961 0.225466 8.224C0.498466 7.491 1.05847 6.807 1.92747 6.574C1.9808 6.56 2.03413 6.548 2.08747 6.538C2.45747 4.854 3.18147 3.327 4.33747 2.163Z" fill="#817E84"/>
<path d="M15 11L13.5 12H12L11 11.5" stroke="#817E84" stroke-linecap="round"/>
<path d="M5 11L6.5 12H8L9 11.5" stroke="#817E84" stroke-linecap="round"/>
</svg>
