<svg width="2283" height="2111" viewBox="0 0 2283 2111" fill="none" xmlns="http://www.w3.org/2000/svg">
<g filter="url(#filter0_d_87_163)">
<path opacity="0.0714286" d="M1879.26 1162.72C1884.78 1210.05 1867.71 1254.6 1832.03 1294.64C1796.35 1334.68 1742.09 1370.2 1673.28 1399.43C1535.66 1457.88 1339.98 1491.18 1118.85 1485.44C897.713 1479.7 693.048 1436.01 540.918 1370.03C464.852 1337.04 401.945 1298.49 356.679 1256.34C311.416 1214.2 283.818 1168.49 278.297 1121.16C272.776 1073.83 289.845 1029.27 325.522 989.231C361.2 949.187 415.469 913.676 484.276 884.447C621.891 825.988 817.575 792.688 1038.71 798.429C1259.84 804.169 1464.51 847.862 1616.64 913.842C1692.7 946.833 1755.61 985.385 1800.88 1027.53C1846.14 1069.67 1873.73 1115.39 1879.26 1162.72Z" stroke="white"/>
<path opacity="0.142857" d="M1897.73 1222.4C1899.44 1266.7 1879.08 1306.26 1840.7 1339.85C1802.31 1373.45 1745.93 1401.06 1675.7 1421.46C1535.23 1462.24 1339.43 1474.15 1121.59 1447.48C903.756 1420.81 705.177 1360.62 560.22 1284.89C487.74 1247.02 428.691 1205.28 387.343 1161.92C345.996 1118.56 322.381 1073.62 320.675 1029.32C318.969 985.028 339.329 945.472 377.712 911.875C416.097 878.277 472.475 850.668 542.71 830.273C683.179 789.483 878.981 777.578 1096.82 804.248C1314.65 830.918 1513.23 891.107 1658.19 966.841C1730.67 1004.71 1789.72 1046.45 1831.07 1089.81C1872.41 1133.17 1896.03 1178.11 1897.73 1222.4Z" stroke="white"/>
<path opacity="0.214286" d="M1910.09 1277.89C1908.4 1318.87 1885.32 1353.28 1844.91 1380.39C1804.49 1407.51 1746.78 1427.31 1675.94 1439.06C1534.28 1462.56 1340.24 1453.89 1127.39 1407.45C914.549 1361.01 723.249 1285.61 586.025 1201.25C517.411 1159.07 462.341 1114.67 424.855 1070.56C387.37 1026.44 367.509 982.666 369.195 941.691C370.881 900.716 393.959 866.307 434.376 839.189C474.792 812.072 532.503 792.278 603.336 780.525C744.999 757.02 939.045 765.692 1151.89 812.132C1364.73 858.571 1556.03 933.976 1693.26 1018.33C1761.87 1060.51 1816.94 1104.91 1854.43 1149.03C1891.91 1193.14 1911.77 1236.92 1910.09 1277.89Z" stroke="white"/>
<path opacity="0.285714" d="M1916.72 1328.71C1912.09 1366.15 1886.88 1395.34 1845.1 1416.02C1803.33 1436.71 1745.05 1448.86 1674.43 1452.25C1533.2 1459.04 1342.7 1430.78 1136.43 1365.87C930.156 1300.96 747.206 1211.69 618.165 1119.85C553.642 1073.93 502.622 1027.38 468.902 982.938C435.18 938.492 418.808 896.217 423.437 858.782C428.066 821.348 453.275 792.158 495.051 771.471C536.824 750.785 595.102 738.635 665.723 735.243C806.959 728.459 997.454 756.71 1203.73 821.623C1410 886.536 1592.95 975.807 1721.99 1067.65C1786.51 1113.57 1837.53 1160.11 1871.25 1204.56C1904.97 1249 1921.35 1291.28 1916.72 1328.71Z" stroke="white"/>
<path opacity="0.357143" d="M1918.09 1374.39C1910.98 1408.13 1884.24 1432.11 1841.77 1446.49C1799.31 1460.87 1741.21 1465.64 1671.58 1461.04C1532.34 1451.83 1347.09 1405.16 1148.84 1323.19C950.602 1241.22 776.94 1139.49 656.427 1041.29C596.167 992.193 549.22 943.995 519.128 899.613C489.031 855.222 475.854 814.739 482.957 780.996C490.06 747.253 516.806 723.278 559.275 708.892C601.736 694.509 659.832 689.744 729.458 694.347C868.704 703.554 1053.96 750.226 1252.2 832.195C1450.44 914.163 1624.1 1015.89 1744.62 1114.09C1804.88 1163.19 1851.82 1211.39 1881.91 1255.77C1912.01 1300.16 1925.19 1340.64 1918.09 1374.39Z" stroke="white"/>
<path opacity="0.428571" d="M1914.67 1414.56C1905.57 1444.52 1877.88 1463.37 1835.37 1471.66C1792.88 1479.94 1735.68 1477.66 1667.8 1465.51C1532.03 1441.19 1353.61 1377.41 1164.72 1279.91C975.823 1182.4 812.258 1069.66 700.51 966.207C644.634 914.479 601.736 865.096 575.101 821.125C548.456 777.139 538.153 738.684 547.248 708.716C556.343 678.747 584.035 659.905 626.545 651.615C669.04 643.328 726.233 645.61 794.118 657.766C929.883 682.078 1108.31 745.862 1297.2 843.366C1486.09 940.87 1649.66 1053.61 1761.41 1157.06C1817.28 1208.79 1860.18 1258.18 1886.82 1302.15C1913.46 1346.13 1923.76 1384.59 1914.67 1414.56Z" stroke="white"/>
<path opacity="0.5" d="M1907 1448.9C1896.4 1475.08 1868.34 1488.94 1826.42 1491.42C1784.52 1493.89 1728.92 1484.97 1663.48 1465.77C1532.6 1427.39 1362.46 1347.93 1184.09 1236.5C1005.72 1125.06 852.925 1002.77 750.081 895.136C698.656 841.318 659.742 791.189 636.359 747.936C612.963 704.657 605.193 668.412 615.793 642.233C626.392 616.054 654.451 602.191 696.372 599.719C738.267 597.248 793.868 606.166 859.312 625.361C990.192 663.748 1160.33 743.204 1338.7 854.638C1517.07 966.073 1669.86 1088.37 1772.71 1196C1824.13 1249.82 1863.05 1299.95 1886.43 1343.2C1909.83 1386.48 1917.6 1422.72 1907 1448.9Z" stroke="white"/>
<path opacity="0.571429" d="M1895.6 1477.19C1883.99 1499.63 1856.12 1508.74 1815.39 1505.74C1774.7 1502.74 1721.34 1487.67 1658.99 1462.01C1534.3 1410.71 1373.76 1317.13 1206.94 1193.44C1040.12 1069.74 898.635 939.368 804.735 828.587C757.782 773.193 722.746 722.721 702.386 680.448C682.008 638.137 676.418 604.226 688.036 581.785C699.653 559.345 727.514 550.237 768.245 553.237C808.937 556.235 862.299 571.308 924.649 596.962C1049.34 648.266 1209.88 741.842 1376.7 865.537C1543.52 989.232 1685 1119.61 1778.9 1230.39C1825.86 1285.78 1860.89 1336.25 1881.25 1378.53C1901.63 1420.84 1907.22 1454.75 1895.6 1477.19Z" stroke="white"/>
<path opacity="0.642857" d="M1881.09 1499.29C1875.01 1508.69 1865.2 1514.56 1852.02 1517.07C1838.83 1519.57 1822.29 1518.71 1802.83 1514.68C1763.91 1506.63 1713.39 1485.94 1654.73 1454.47C1537.41 1391.52 1387.65 1285.46 1233.25 1151.22C1078.85 1016.99 949.068 879.998 864.059 767.044C821.552 710.563 790.257 660.114 772.668 619.039C763.874 598.501 758.518 580.333 756.89 564.943C755.263 549.556 757.365 536.987 763.44 527.583C769.516 518.178 779.325 512.31 792.512 509.804C805.702 507.297 822.237 508.161 841.698 512.188C880.618 520.243 931.142 540.93 989.802 572.406C1107.12 635.356 1256.88 741.408 1411.28 875.647C1565.68 1009.89 1695.46 1146.87 1780.47 1259.83C1822.98 1316.31 1854.27 1366.76 1871.86 1407.83C1880.66 1428.37 1886.01 1446.54 1887.64 1461.93C1889.27 1477.31 1887.16 1489.88 1881.09 1499.29Z" stroke="white"/>
<path opacity="0.714286" d="M1864 1515.07C1857.89 1522.74 1848.38 1526.73 1835.77 1527.2C1823.16 1527.67 1807.5 1524.62 1789.19 1518.3C1752.57 1505.66 1705.43 1479.95 1650.99 1443.34C1542.12 1370.11 1404.15 1253.3 1262.87 1110.26C1121.6 967.227 1003.8 825.063 927.542 710.853C889.412 653.744 861.684 603.645 846.599 563.936C839.057 544.081 834.686 526.851 833.744 512.658C832.802 498.466 835.289 487.369 841.398 479.692C847.507 472.016 857.02 468.032 869.63 467.561C882.241 467.091 897.897 470.139 916.209 476.461C952.831 489.105 999.971 514.808 1054.41 551.424C1163.28 624.65 1301.26 741.458 1442.53 884.496C1583.8 1027.53 1701.6 1169.7 1777.86 1283.91C1815.99 1341.02 1843.72 1391.12 1858.8 1430.82C1866.34 1450.68 1870.72 1467.91 1871.66 1482.1C1872.6 1496.29 1870.11 1507.39 1864 1515.07Z" stroke="white"/>
<path opacity="0.785714" d="M1844.94 1524.48C1839.02 1530.55 1830.03 1532.82 1818.23 1531.44C1806.43 1530.07 1791.89 1525.06 1774.96 1516.71C1741.12 1499.99 1697.85 1469.91 1648.1 1428.88C1548.61 1346.83 1423.27 1221.04 1295.67 1070.96C1168.07 920.872 1062.38 774.932 994.666 660.313C960.805 603 936.449 553.54 923.588 515.32C917.157 496.207 913.61 479.936 913.173 466.915C912.736 453.889 915.412 444.202 921.33 438.136C927.248 432.071 936.234 429.806 948.04 431.18C959.841 432.553 974.382 437.556 991.306 445.914C1025.15 462.629 1068.42 492.706 1118.17 533.736C1217.66 615.789 1343 741.582 1470.6 891.665C1598.2 1041.75 1703.89 1187.69 1771.6 1302.31C1805.46 1359.62 1829.82 1409.08 1842.68 1447.3C1849.11 1466.41 1852.66 1482.69 1853.1 1495.71C1853.53 1508.73 1850.86 1518.42 1844.94 1524.48Z" stroke="white"/>
<path opacity="0.857143" d="M1824.48 1527.58C1818.97 1532.18 1810.72 1532.92 1799.93 1529.91C1789.15 1526.91 1775.93 1520.2 1760.61 1510.09C1729.97 1489.87 1691 1456.09 1646.33 1411.41C1557.01 1322.04 1444.99 1189.07 1331.45 1033.68C1217.9 878.296 1124.35 729.933 1064.88 615.68C1035.15 558.55 1013.94 509.968 1003.02 473.311C997.556 454.98 994.674 439.661 994.568 427.762C994.462 415.848 997.137 407.484 1002.65 402.887C1008.17 398.291 1016.41 397.551 1027.21 400.556C1037.99 403.557 1051.2 410.265 1066.53 420.379C1097.17 440.602 1136.14 474.374 1180.8 519.062C1270.13 608.433 1382.15 741.402 1495.69 896.788C1609.23 1052.17 1702.79 1200.54 1762.26 1314.79C1791.99 1371.92 1813.19 1420.5 1824.12 1457.16C1829.58 1475.49 1832.46 1490.81 1832.57 1502.71C1832.68 1514.62 1830 1522.99 1824.48 1527.58Z" stroke="white"/>
<path opacity="0.928571" d="M1811.38 1527.27C1806.46 1530.57 1799.14 1530 1789.54 1525.59C1779.96 1521.2 1768.27 1513.06 1754.73 1501.49C1727.66 1478.35 1693.34 1441.6 1654.09 1394.03C1575.58 1298.9 1477.39 1160.57 1378.12 1001.6C1278.86 842.626 1197.34 693.126 1145.77 579.933C1119.98 523.333 1101.69 475.829 1092.42 440.765C1087.78 423.23 1085.41 408.837 1085.46 397.986C1085.52 387.102 1088.02 379.952 1092.94 376.657C1097.85 373.363 1105.17 373.93 1114.78 378.336C1124.35 382.729 1136.05 390.872 1149.58 402.442C1176.65 425.577 1210.97 462.332 1250.23 509.901C1328.74 605.034 1426.93 743.362 1526.19 902.333C1625.45 1061.3 1706.98 1210.8 1758.55 1324C1784.34 1380.6 1802.62 1428.1 1811.9 1463.16C1816.53 1480.7 1818.91 1495.09 1818.85 1505.94C1818.79 1516.83 1816.29 1523.98 1811.38 1527.27Z" stroke="white"/>
<g filter="url(#filter1_i_87_163)">
<path d="M1968.22 1413.85C1933.91 1431.96 1892.62 1433 1847.28 1419.3C1801.94 1405.6 1752.59 1377.16 1702.22 1336.39C1601.47 1254.84 1496.69 1123.98 1411.8 963.125C1326.9 802.274 1277.98 641.931 1267.51 512.737C1262.27 448.139 1266.64 391.352 1280.91 346.191C1295.18 301.032 1319.34 267.53 1353.65 249.422C1387.96 231.314 1429.25 230.275 1474.58 243.974C1519.92 257.675 1569.27 286.107 1619.64 326.883C1720.39 408.434 1825.17 539.297 1910.06 700.148C1994.96 860.999 2043.88 1021.34 2054.36 1150.53C2059.6 1215.13 2055.22 1271.92 2040.95 1317.08C2026.68 1362.24 2002.52 1395.74 1968.22 1413.85Z" stroke="white"/>
</g>
</g>
<defs>
<filter id="filter0_d_87_163" x="271.579" y="234.146" width="1790.61" height="1308.6" filterUnits="userSpaceOnUse" color-interpolation-filters="sRGB">
<feFlood flood-opacity="0" result="BackgroundImageFix"/>
<feColorMatrix in="SourceAlpha" type="matrix" values="0 0 0 0 0 0 0 0 0 0 0 0 0 0 0 0 0 0 127 0" result="hardAlpha"/>
<feOffset dy="5.19559"/>
<feGaussianBlur stdDeviation="2.5978"/>
<feComposite in2="hardAlpha" operator="out"/>
<feColorMatrix type="matrix" values="0 0 0 0 1 0 0 0 0 1 0 0 0 0 1 0 0 0 1 0"/>
<feBlend mode="normal" in2="BackgroundImageFix" result="effect1_dropShadow_87_163"/>
<feBlend mode="normal" in="SourceGraphic" in2="effect1_dropShadow_87_163" result="shape"/>
</filter>
<filter id="filter1_i_87_163" x="1264.87" y="228.951" width="792.123" height="1200.17" filterUnits="userSpaceOnUse" color-interpolation-filters="sRGB">
<feFlood flood-opacity="0" result="BackgroundImageFix"/>
<feBlend mode="normal" in="SourceGraphic" in2="BackgroundImageFix" result="shape"/>
<feColorMatrix in="SourceAlpha" type="matrix" values="0 0 0 0 0 0 0 0 0 0 0 0 0 0 0 0 0 0 127 0" result="hardAlpha"/>
<feOffset dy="-11.6901"/>
<feGaussianBlur stdDeviation="2.5978"/>
<feComposite in2="hardAlpha" operator="arithmetic" k2="-1" k3="1"/>
<feColorMatrix type="matrix" values="0 0 0 0 1 0 0 0 0 0.949038 0 0 0 0 0.996603 0 0 0 0.25 0"/>
<feBlend mode="normal" in2="shape" result="effect1_innerShadow_87_163"/>
</filter>
</defs>
</svg>
