<svg width="24" height="23" viewBox="0 0 24 23" fill="none" xmlns="http://www.w3.org/2000/svg">
<path d="M23.2 10.2803H18C18 11.8716 17.3679 13.3977 16.2426 14.5229C15.1174 15.6481 13.5913 16.2803 12 16.2803C10.4087 16.2803 8.88258 15.6481 7.75736 14.5229C6.63214 13.3977 6 11.8716 6 10.2803H0.75" stroke="#817E84" stroke-width="1.5" stroke-linecap="round" stroke-linejoin="round"/>
<path d="M8.25 9.53071C8.25 10.5253 8.64509 11.4791 9.34835 12.1824C10.0516 12.8856 11.0054 13.2807 12 13.2807C12.9946 13.2807 13.9484 12.8856 14.6517 12.1824C15.3549 11.4791 15.75 10.5253 15.75 9.53071C15.75 6.87571 12.813 5.98271 13.697 1.65371C13.7288 1.50195 13.7127 1.34407 13.6511 1.20181C13.5894 1.05954 13.4852 0.939873 13.3528 0.85928C13.2203 0.778687 13.0661 0.741127 12.9114 0.751769C12.7568 0.762412 12.6092 0.820734 12.489 0.918709C11.2412 1.99675 10.223 3.31468 9.49475 4.79414C8.76653 6.2736 8.34322 7.88438 8.25 9.53071Z" stroke="#817E84" stroke-width="1.5" stroke-linecap="round" stroke-linejoin="round"/>
<path d="M1.5 21.9053C1.40054 21.9053 1.30516 21.8658 1.23484 21.7954C1.16451 21.7251 1.125 21.6297 1.125 21.5303C1.125 21.4308 1.16451 21.3354 1.23484 21.2651C1.30516 21.1948 1.40054 21.1553 1.5 21.1553M1.5 21.9053C1.59946 21.9053 1.69484 21.8658 1.76517 21.7954C1.83549 21.7251 1.875 21.6297 1.875 21.5303C1.875 21.4308 1.83549 21.3354 1.76517 21.2651C1.69484 21.1948 1.59946 21.1553 1.5 21.1553M8.25 21.9053C8.15054 21.9053 8.05516 21.8658 7.98484 21.7954C7.91451 21.7251 7.875 21.6297 7.875 21.5303C7.875 21.4308 7.91451 21.3354 7.98484 21.2651C8.05516 21.1948 8.15054 21.1553 8.25 21.1553M8.25 21.9053C8.34946 21.9053 8.44484 21.8658 8.51516 21.7954C8.58549 21.7251 8.625 21.6297 8.625 21.5303C8.625 21.4308 8.58549 21.3354 8.51516 21.2651C8.44484 21.1948 8.34946 21.1553 8.25 21.1553M15.75 21.9053C15.6505 21.9053 15.5552 21.8658 15.4848 21.7954C15.4145 21.7251 15.375 21.6297 15.375 21.5303C15.375 21.4308 15.4145 21.3354 15.4848 21.2651C15.5552 21.1948 15.6505 21.1553 15.75 21.1553M15.75 21.9053C15.8495 21.9053 15.9448 21.8658 16.0152 21.7954C16.0855 21.7251 16.125 21.6297 16.125 21.5303C16.125 21.4308 16.0855 21.3354 16.0152 21.2651C15.9448 21.1948 15.8495 21.1553 15.75 21.1553M22.5 21.9053C22.4005 21.9053 22.3052 21.8658 22.2348 21.7954C22.1645 21.7251 22.125 21.6297 22.125 21.5303C22.125 21.4308 22.1645 21.3354 22.2348 21.2651C22.3052 21.1948 22.4005 21.1553 22.5 21.1553M22.5 21.9053C22.5995 21.9053 22.6948 21.8658 22.7652 21.7954C22.8355 21.7251 22.875 21.6297 22.875 21.5303C22.875 21.4308 22.8355 21.3354 22.7652 21.2651C22.6948 21.1948 22.5995 21.1553 22.5 21.1553M22.5 14.4053C22.4005 14.4053 22.3052 14.3658 22.2348 14.2954C22.1645 14.2251 22.125 14.1297 22.125 14.0303C22.125 13.9308 22.1645 13.8354 22.2348 13.7651C22.3052 13.6948 22.4005 13.6553 22.5 13.6553M22.5 14.4053C22.5995 14.4053 22.6948 14.3658 22.7652 14.2954C22.8355 14.2251 22.875 14.1297 22.875 14.0303C22.875 13.9308 22.8355 13.8354 22.7652 13.7651C22.6948 13.6948 22.5995 13.6553 22.5 13.6553M19.5 18.1553C19.4005 18.1553 19.3052 18.1158 19.2348 18.0454C19.1645 17.9751 19.125 17.8797 19.125 17.7803C19.125 17.6808 19.1645 17.5854 19.2348 17.5151C19.3052 17.4448 19.4005 17.4053 19.5 17.4053M19.5 18.1553C19.5995 18.1553 19.6948 18.1158 19.7652 18.0454C19.8355 17.9751 19.875 17.8797 19.875 17.7803C19.875 17.6808 19.8355 17.5854 19.7652 17.5151C19.6948 17.4448 19.5995 17.4053 19.5 17.4053M4.5 18.1553C4.40054 18.1553 4.30516 18.1158 4.23483 18.0454C4.16451 17.9751 4.125 17.8797 4.125 17.7803C4.125 17.6808 4.16451 17.5854 4.23483 17.5151C4.30516 17.4448 4.40054 17.4053 4.5 17.4053M4.5 18.1553C4.59946 18.1553 4.69484 18.1158 4.76516 18.0454C4.83549 17.9751 4.875 17.8797 4.875 17.7803C4.875 17.6808 4.83549 17.5854 4.76516 17.5151C4.69484 17.4448 4.59946 17.4053 4.5 17.4053M1.5 14.4053C1.40054 14.4053 1.30516 14.3658 1.23484 14.2954C1.16451 14.2251 1.125 14.1297 1.125 14.0303C1.125 13.9308 1.16451 13.8354 1.23484 13.7651C1.30516 13.6948 1.40054 13.6553 1.5 13.6553M1.5 14.4053C1.59946 14.4053 1.69484 14.3658 1.76517 14.2954C1.83549 14.2251 1.875 14.1297 1.875 14.0303C1.875 13.9308 1.83549 13.8354 1.76517 13.7651C1.69484 13.6948 1.59946 13.6553 1.5 13.6553" stroke="#817E84" stroke-width="1.5"/>
</svg>
