<svg width="14" height="17" viewBox="0 0 14 17" fill="none" xmlns="http://www.w3.org/2000/svg">
<path d="M3.73787 10.0325V13.18M10.033 8.4587V13.18M6.88541 5.31116V13.18M13.1805 4.36689V12.5505C13.1805 13.8726 13.1805 14.5336 12.9232 15.0386C12.6969 15.4828 12.3358 15.8439 11.8916 16.0702C11.3866 16.3275 10.7256 16.3275 9.40345 16.3275H4.36738C3.04529 16.3275 2.38424 16.3275 1.87927 16.0702C1.43508 15.8439 1.07395 15.4828 0.847628 15.0386C0.590332 14.5336 0.590332 13.8726 0.590332 12.5505V4.36689C0.590332 3.0448 0.590332 2.38375 0.847628 1.87879C1.07395 1.4346 1.43508 1.07346 1.87927 0.84714C2.38424 0.589844 3.04529 0.589844 4.36738 0.589844H9.40345C10.7256 0.589844 11.3866 0.589844 11.8916 0.84714C12.3358 1.07346 12.6969 1.4346 12.9232 1.87879C13.1805 2.38375 13.1805 3.0448 13.1805 4.36689Z" stroke="white" stroke-width="1.18033" stroke-linecap="round" stroke-linejoin="round"/>
</svg>
