<svg width="18" height="20" viewBox="0 0 18 20" fill="none" xmlns="http://www.w3.org/2000/svg">
<path d="M14 14C14.7956 14 15.5587 14.3161 16.1213 14.8787C16.6839 15.4413 17 16.2044 17 17C17 17.7956 16.6839 18.5587 16.1213 19.1213C15.5587 19.6839 14.7956 20 14 20C13.2044 20 12.4413 19.6839 11.8787 19.1213C11.3161 18.5587 11 17.7956 11 17C11 16.2044 11.3161 15.4413 11.8787 14.8787C12.4413 14.3161 13.2044 14 14 14ZM4 10C5.06087 10 6.07828 10.4214 6.82843 11.1716C7.57857 11.9217 8 12.9391 8 14C8 15.0609 7.57857 16.0783 6.82843 16.8284C6.07828 17.5786 5.06087 18 4 18C2.93913 18 1.92172 17.5786 1.17157 16.8284C0.421427 16.0783 0 15.0609 0 14C0 12.9391 0.421427 11.9217 1.17157 11.1716C1.92172 10.4214 2.93913 10 4 10ZM14 16C13.7348 16 13.4804 16.1054 13.2929 16.2929C13.1054 16.4804 13 16.7348 13 17C13 17.2652 13.1054 17.5196 13.2929 17.7071C13.4804 17.8946 13.7348 18 14 18C14.2652 18 14.5196 17.8946 14.7071 17.7071C14.8946 17.5196 15 17.2652 15 17C15 16.7348 14.8946 16.4804 14.7071 16.2929C14.5196 16.1054 14.2652 16 14 16ZM4 12C3.46957 12 2.96086 12.2107 2.58579 12.5858C2.21071 12.9609 2 13.4696 2 14C2 14.5304 2.21071 15.0391 2.58579 15.4142C2.96086 15.7893 3.46957 16 4 16C4.53043 16 5.03914 15.7893 5.41421 15.4142C5.78929 15.0391 6 14.5304 6 14C6 13.4696 5.78929 12.9609 5.41421 12.5858C5.03914 12.2107 4.53043 12 4 12ZM12.5 0C13.9587 0 15.3576 0.579463 16.3891 1.61091C17.4205 2.64236 18 4.04131 18 5.5C18 6.95869 17.4205 8.35764 16.3891 9.38909C15.3576 10.4205 13.9587 11 12.5 11C11.0413 11 9.64236 10.4205 8.61091 9.38909C7.57946 8.35764 7 6.95869 7 5.5C7 4.04131 7.57946 2.64236 8.61091 1.61091C9.64236 0.579463 11.0413 0 12.5 0ZM12.5 2C11.5717 2 10.6815 2.36875 10.0251 3.02513C9.36875 3.6815 9 4.57174 9 5.5C9 6.42826 9.36875 7.3185 10.0251 7.97487C10.6815 8.63125 11.5717 9 12.5 9C13.4283 9 14.3185 8.63125 14.9749 7.97487C15.6313 7.3185 16 6.42826 16 5.5C16 4.57174 15.6313 3.6815 14.9749 3.02513C14.3185 2.36875 13.4283 2 12.5 2Z" fill="#817E84"/>
</svg>
