<svg width="35" height="35" viewBox="0 0 35 35" fill="none" xmlns="http://www.w3.org/2000/svg">
<path fill-rule="evenodd" clip-rule="evenodd" d="M17.0833 34.1667C26.5185 34.1667 34.1667 26.5185 34.1667 17.0833C34.1667 7.64821 26.5185 0 17.0833 0C7.64821 0 0 7.64821 0 17.0833C0 26.5185 7.64821 34.1667 17.0833 34.1667ZM24.0294 10.1372C24.2694 10.3775 24.4041 10.7031 24.4041 11.0427C24.4041 11.3822 24.2694 11.7078 24.0294 11.9481L18.8942 17.0833L24.0277 22.2169C24.254 22.4598 24.3772 22.781 24.3714 23.1129C24.3655 23.4449 24.2311 23.7616 23.9963 23.9963C23.7616 24.2311 23.4449 24.3655 23.1129 24.3714C22.781 24.3772 22.4598 24.254 22.2169 24.0277L17.0833 18.8976L11.9498 24.0311C11.8325 24.157 11.691 24.258 11.5339 24.328C11.3767 24.398 11.2071 24.4357 11.035 24.4387C10.863 24.4418 10.6921 24.4101 10.5326 24.3457C10.373 24.2812 10.2281 24.1853 10.1064 24.0637C9.98477 23.942 9.88886 23.7971 9.82442 23.6375C9.75998 23.478 9.72833 23.3071 9.73136 23.1351C9.7344 22.963 9.77205 22.7934 9.84208 22.6362C9.91211 22.479 10.0131 22.3376 10.139 22.2203L15.2691 17.0833L10.1372 11.9498C10.0114 11.8325 9.9104 11.691 9.84037 11.5339C9.77035 11.3767 9.73269 11.2071 9.72966 11.035C9.72662 10.863 9.75827 10.6921 9.82271 10.5326C9.88715 10.373 9.98306 10.2281 10.1047 10.1064C10.2264 9.98477 10.3713 9.88886 10.5309 9.82442C10.6904 9.75998 10.8613 9.72833 11.0333 9.73136C11.2053 9.7344 11.375 9.77205 11.5322 9.84208C11.6893 9.91211 11.8308 10.0131 11.9481 10.139L17.0833 15.2691L22.2169 10.1355C22.4571 9.89561 22.7828 9.76084 23.1223 9.76084C23.4618 9.76084 23.7875 9.89561 24.0277 10.1355" fill="#FE6A3A"/>
</svg>
