<svg width="22" height="22" viewBox="0 0 22 22" fill="none" xmlns="http://www.w3.org/2000/svg">
<g clip-path="url(#clip0_34_131)">
<path d="M10.9999 20.1663C16.0625 20.1663 20.1666 16.0623 20.1666 10.9997C20.1666 5.93706 16.0625 1.83301 10.9999 1.83301C5.93731 1.83301 1.83325 5.93706 1.83325 10.9997C1.83325 16.0623 5.93731 20.1663 10.9999 20.1663Z" stroke="#817E84" stroke-width="2" stroke-linecap="round"/>
<path d="M7.33325 8.29577V8.2041M14.6666 8.29577V8.2041" stroke="#817E84" stroke-width="2" stroke-linecap="round"/>
<path d="M14.6666 14.666C14.2083 13.291 13.0258 11.916 10.9999 11.916C8.97409 11.916 7.79159 13.291 7.33325 14.666" stroke="#817E84" stroke-width="2" stroke-linecap="round" stroke-linejoin="round"/>
<g filter="url(#filter0_f_34_131)">
<path d="M9.16675 11.916C9.16675 13.4348 7.93553 14.666 6.41675 14.666C4.89796 14.666 3.66675 13.4348 3.66675 11.916C3.66675 10.3972 4.89796 9.16602 6.41675 9.16602C7.93553 9.16602 9.16675 10.3972 9.16675 11.916Z" fill="#FFA7A7"/>
</g>
<g filter="url(#filter1_f_34_131)">
<path d="M17.5 11.75C17.5 13.2688 16.2688 14.5 14.75 14.5C13.2312 14.5 12 13.2688 12 11.75C12 10.2312 13.2312 9 14.75 9C16.2688 9 17.5 10.2312 17.5 11.75Z" fill="#FFA7A7"/>
</g>
</g>
<defs>
<filter id="filter0_f_34_131" x="-0.333252" y="5.16602" width="13.5" height="13.5" filterUnits="userSpaceOnUse" color-interpolation-filters="sRGB">
<feFlood flood-opacity="0" result="BackgroundImageFix"/>
<feBlend mode="normal" in="SourceGraphic" in2="BackgroundImageFix" result="shape"/>
<feGaussianBlur stdDeviation="2" result="effect1_foregroundBlur_34_131"/>
</filter>
<filter id="filter1_f_34_131" x="8" y="5" width="13.5" height="13.5" filterUnits="userSpaceOnUse" color-interpolation-filters="sRGB">
<feFlood flood-opacity="0" result="BackgroundImageFix"/>
<feBlend mode="normal" in="SourceGraphic" in2="BackgroundImageFix" result="shape"/>
<feGaussianBlur stdDeviation="2" result="effect1_foregroundBlur_34_131"/>
</filter>
<clipPath id="clip0_34_131">
<rect width="22" height="22" fill="white"/>
</clipPath>
</defs>
</svg>
