<svg width="20" height="22" viewBox="0 0 20 22" fill="none" xmlns="http://www.w3.org/2000/svg">
<path d="M7.00024 5V9.5012C7.00024 10.0521 7.00024 10.3276 6.93156 10.5829C6.87071 10.809 6.77061 11.0228 6.63581 11.2143C6.48368 11.4305 6.27206 11.6068 5.84883 11.9595L2.15165 15.0405C1.72842 15.3932 1.5168 15.5695 1.36467 15.7857C1.22987 15.9772 1.12977 16.191 1.06892 16.4171C1.00024 16.6724 1.00024 16.9479 1.00024 17.4988V17.8C1.00024 18.9201 1.00024 19.4802 1.21823 19.908C1.40997 20.2843 1.71593 20.5903 2.09226 20.782C2.52008 21 3.08014 21 4.20024 21H15.8002C16.9203 21 17.4804 21 17.9082 20.782C18.2845 20.5903 18.5905 20.2843 18.7822 19.908C19.0002 19.4802 19.0002 18.9201 19.0002 17.8V17.4988C19.0002 16.9479 19.0002 16.6724 18.9315 16.4171C18.8707 16.191 18.7706 15.9772 18.6358 15.7857C18.4836 15.5695 18.272 15.3932 17.8488 15.0405L14.1516 11.9595C13.7284 11.6068 13.5168 11.4305 13.3646 11.2143C13.2298 11.0228 13.1297 10.809 13.0689 10.5829C13.0002 10.3276 13.0002 10.0521 13.0002 9.5012V5M6.30024 5H13.7002C13.9802 5 14.1202 5 14.2272 4.9455C14.3213 4.89757 14.3978 4.82108 14.4457 4.727C14.5002 4.62004 14.5002 4.48003 14.5002 4.2V1.8C14.5002 1.51997 14.5002 1.37996 14.4457 1.273C14.3978 1.17892 14.3213 1.10243 14.2272 1.0545C14.1202 1 13.9802 1 13.7002 1H6.30024C6.02021 1 5.8802 1 5.77324 1.0545C5.67916 1.10243 5.60267 1.17892 5.55474 1.273C5.50024 1.37996 5.50024 1.51997 5.50024 1.8V4.2C5.50024 4.48003 5.50024 4.62004 5.55474 4.727C5.60267 4.82108 5.67916 4.89757 5.77324 4.9455C5.8802 5 6.02021 5 6.30024 5ZM3.50024 16H16.5002C16.9649 16 17.1972 16 17.3904 16.0384C18.1838 16.1962 18.804 16.8164 18.9618 17.6098C19.0002 17.803 19.0002 18.0353 19.0002 18.5C19.0002 18.9647 19.0002 19.197 18.9618 19.3902C18.804 20.1836 18.1838 20.8038 17.3904 20.9616C17.1972 21 16.9649 21 16.5002 21H3.50024C3.03558 21 2.80326 21 2.61006 20.9616C1.81668 20.8038 1.19648 20.1836 1.03867 19.3902C1.00024 19.197 1.00024 18.9647 1.00024 18.5C1.00024 18.0353 1.00024 17.803 1.03867 17.6098C1.19648 16.8164 1.81668 16.1962 2.61006 16.0384C2.80326 16 3.03558 16 3.50024 16Z" stroke="white" stroke-width="2" stroke-linecap="round" stroke-linejoin="round"/>
</svg>
