<svg width="27" height="22" viewBox="0 0 27 22" fill="none" xmlns="http://www.w3.org/2000/svg">
<path fill-rule="evenodd" clip-rule="evenodd" d="M10.9814 0L13.3333 1.17469L15.6852 0H26.6667V20H16.3133L13.3333 21.4907L10.3521 20H0V0H10.9814ZM10.352 2.66669H2.66669V17.3333H10.9814L12 17.8421V3.49069L10.352 2.66669ZM24 2.66669H16.3133L14.6666 3.49038V17.8421L15.6853 17.3333H24V2.66669ZM22.6667 10.6667V12.6667H16V10.6667H22.6667ZM10.6667 10.6667V12.6667H4V10.6667H10.6667ZM22.6667 5.33331V7.33331H16V5.33331H22.6667ZM10.6667 5.33331V7.33331H4V5.33331H10.6667Z" fill="#404040"/>
</svg>
