<svg width="136" height="111" viewBox="0 0 136 111" fill="none" xmlns="http://www.w3.org/2000/svg">
<path d="M49.3332 80.167L67.8332 61.667M67.8332 61.667L86.3332 80.167M67.8332 61.667V104.834M129.5 37.0003H6.1665M27.7498 92.5003H25.8998C18.9926 92.5003 15.5389 92.5003 12.9006 91.156C10.5799 89.9738 8.69317 88.0868 7.51078 85.7663C6.1665 83.1282 6.1665 79.6743 6.1665 72.767V25.9003C6.1665 18.993 6.1665 15.5393 7.51078 12.9011C8.69317 10.5804 10.58 8.69366 12.9006 7.51126C15.5389 6.16699 18.9926 6.16699 25.8998 6.16699H109.767C116.674 6.16699 120.128 6.16699 122.766 7.51126C125.086 8.69372 126.973 10.5805 128.156 12.9011C129.5 15.5393 129.5 18.993 129.5 25.9003V72.767C129.5 79.6743 129.5 83.1282 128.156 85.7663C126.973 88.0868 125.086 89.9738 122.766 91.156C120.128 92.5003 116.674 92.5003 109.767 92.5003H107.917" stroke="#242424" stroke-opacity="0.3" stroke-width="12.3333" stroke-linecap="round" stroke-linejoin="round"/>
</svg>
